<?xml version="1.0"?>
<svg xmlns="http://www.w3.org/2000/svg" xmlns:xlink="http://www.w3.org/1999/xlink" version="1.1" width="512" height="512" x="0" y="0" viewBox="0 0 512.002 512.002" style="enable-background:new 0 0 512 512" xml:space="preserve" class="">
  <g>
    <path d="m7.715 122.031 194.709-84.676a11.79 11.79 0 0 1 9.403 0l194.709 84.676-199.41 92.979L7.715 122.031z" style="" fill="#b78774" data-original="#b78774"/>
    <path d="M226.94 44.455c.213-.093.433-.163.65-.243l-15.763-6.855a11.79 11.79 0 0 0-9.403 0L7.715 122.031l19.708 9.19L226.94 44.455z" style="" fill="#ad7b64" data-original="#ad7b64"/>
    <path d="M7.715 381.848a9.433 9.433 0 0 0 5.624 8.629l193.786 85.497V210.01L7.715 122.031v259.817zM207.125 210.01v265.964l20.316-8.963V201.047z" style="" fill="#966653" data-original="#966653"/>
    <path d="M27.717 396.386v-265.53l-20.001-8.825v259.817a9.433 9.433 0 0 0 5.624 8.629l14.394 6.35c-.007-.147-.017-.293-.017-.441z" style="" fill="#875746" data-original="#875746"/>
    <path d="M145.412 175.905 88.46 150.777l-7.243 3.682v88.848c0 2.77 1.636 5.28 4.17 6.398l46.882 20.684c2.778 1.226 5.9-.809 5.9-3.845v-86.958l7.243-3.681z" style="" fill="#00c3ff" data-original="#00c3ff"/>
    <path d="m101.217 156.405-12.758-5.628-7.243 3.682v88.848c0 2.77 1.636 5.28 4.17 6.398l15.831 6.984V156.405z" style="" fill="#06b0f2" data-original="#06b0f2"/>
    <path d="m207.125 475.975 193.786-85.497a9.431 9.431 0 0 0 5.624-8.629V122.031l-199.41 87.978v265.966z" style="" fill="#ad7b64" data-original="#ad7b64"/>
    <path d="m81.216 154.459 56.952 25.128L322.92 85.669l-57.334-24.933z" style="" fill="#00c3ff" data-original="#00c3ff"/>
    <path d="m285.722 69.492-20.136-8.756-184.37 93.723 20.002 8.826z" style="" fill="#06b0f2" data-original="#06b0f2"/>
    <path d="M402.356 468.3c-27.377-7.929-50.886-24.299-67.988-47.341-17.018-22.927-26.013-50.17-26.013-78.785v-77.643a6.574 6.574 0 0 1 9.807-5.724c21.536 12.166 41.919 12.335 60.58.501 14.264-9.046 22.1-21.738 22.177-21.866a6.574 6.574 0 0 1 11.224-.006c1.322 2.146 31.74 50.192 82.761 21.371a6.574 6.574 0 0 1 9.807 5.724v77.643c0 28.614-8.996 55.857-26.013 78.785-17.103 23.041-40.612 39.411-67.987 47.34-4.299 1.246-4.143 1.22-8.355.001z" style="" fill="#ffc850" data-original="#ffc850"/>
    <path d="M399.709 259.309c7.707-4.887 13.534-10.838 17.278-15.297-2.912-3.506-4.556-6.111-4.842-6.575a6.573 6.573 0 0 0-11.224.006c-.077.127-7.913 12.821-22.177 21.866-5.973 3.788-12.125 6.339-18.432 7.668 13.783 2.762 26.971.211 39.397-7.668zM355.335 420.96c-17.018-22.927-26.014-50.17-26.014-78.785v-77.643c0-.152.019-.301.03-.451-3.692-1.394-7.422-3.146-11.188-5.273a6.574 6.574 0 0 0-9.807 5.724v77.643c0 28.614 8.996 55.857 26.013 78.785 17.103 23.041 40.612 39.411 67.988 47.341 4.291 1.242 4.138 1.221 8.358 0a131.807 131.807 0 0 0 6.304-2.019c-24.68-8.514-45.912-24.072-61.684-45.322z" style="" fill="#f9b938" data-original="#f9b938"/>
    <path d="M457.085 315.572a7.503 7.503 0 0 0-10.607.104l-54.687 55.773-18.896-19.771a7.5 7.5 0 1 0-10.845 10.365l24.249 25.372c2.926 3.063 7.809 3.095 10.778.069l60.111-61.305a7.5 7.5 0 0 0-.103-10.607z" fill="#000000" opacity="1" data-original="#000000"/>
    <path d="M491.002 252.103c-18.702 10.566-36.334 10.923-52.407 1.064-12.804-7.854-19.979-19.354-20.263-19.814a14.046 14.046 0 0 0-4.511-4.555v-27.802c0-4.143-3.358-7.5-7.5-7.5s-7.5 3.357-7.5 7.5v27.793c-3.432 2.162-3.973 4.13-7.016 8.056-11.794 15.219-28.952 25.894-48.477 23.101-6.978-.998-14.189-3.609-21.692-7.848-9.371-5.286-20.994 1.515-20.994 12.258V342c0 25.675 7.04 51.704 21.613 74.712L214.41 464.29V214.725l184.408-81.361v32.631a7.5 7.5 0 0 0 15 0v-44.139l-.001-.011c0-3.041-1.859-5.714-4.508-6.868L214.6 30.302a19.361 19.361 0 0 0-15.385 0L4.509 114.979C1.805 116.154.006 118.887 0 121.837l.001.009-.001.011v259.817a16.937 16.937 0 0 0 10.097 15.49l193.786 85.497a7.563 7.563 0 0 0 6.055.001l121.204-53.474c14.55 18.22 33.306 32.362 54.826 41.203a7.502 7.502 0 0 0 5.702-13.876c-47.378-19.463-76.021-65.595-76.028-114.497V265.93c4.131 2.245 8.255 4.078 12.359 5.518 20.086 7.049 39.562 4.442 57.008-7.613 8.417-5.814 16.118-13.714 21.31-21.439 2.581 3.863 10.928 15.275 24.434 23.559 14.26 8.746 37.245 15.738 66.247-.024v76.07c0 50.59-29.843 95.54-76.028 114.515a7.5 7.5 0 1 0 5.702 13.876c25.018-10.279 46.316-27.706 61.593-50.397 15.528-23.064 23.735-50.035 23.735-77.994v-77.644c-.002-10.765-11.648-17.538-21-12.254zm-402.5-86.31 41.951 18.508v77.011l-41.951-18.509v-77.01zm9.995-11.988L265.62 68.848l23.338 10.15 16.155 7.025-167.387 85.09c-30.104-13.282-25.755-11.362-39.229-17.308zm108.414 47.832-51.462-22.704 167.505-85.151 64.673 28.125-180.716 79.73zM205.199 44.06a4.301 4.301 0 0 1 3.421 0l39.159 17.03-167.004 84.897-54.58-24.08L205.199 44.06zM16.152 383.44a1.93 1.93 0 0 1-1.151-1.766v-248.31l58.501 25.811v83.959a14.503 14.503 0 0 0 8.644 13.262l46.882 20.684c7.728 3.409 16.427-2.255 16.427-10.709V190.92l53.955 23.805v249.567L16.152 383.44z" fill="#000000" opacity="1" data-original="#000000"/>
  </g>
</svg>
